<svg xmlns="http://www.w3.org/2000/svg" xmlns:xlink="http://www.w3.org/1999/xlink" width="51.098" height="51.812" viewBox="0 0 51.098 51.812">
  <defs>
    <linearGradient id="linear-gradient" x1="0.02" y1="0.472" x2="1.678" y2="0.439" gradientUnits="objectBoundingBox">
      <stop offset="0" stop-color="#6c7eae"/>
      <stop offset="1" stop-color="#609ea0"/>
    </linearGradient>
    <linearGradient id="linear-gradient-2" x1="-0.083" y1="0.557" x2="0.967" y2="0.57" xlink:href="#linear-gradient"/>
    <linearGradient id="linear-gradient-3" x1="0.525" y1="-0.204" x2="0.682" y2="0.506" xlink:href="#linear-gradient"/>
    <linearGradient id="linear-gradient-4" x1="0.473" y1="0.956" x2="0.587" y2="-0.238" xlink:href="#linear-gradient"/>
  </defs>
  <g id="Lifter_Temporary_Icon" data-name="Lifter Temporary Icon" transform="translate(17998 19965.805)">
    <path id="Subtraction_1" data-name="Subtraction 1" d="M1.891,23.308h0A15.7,15.7,0,0,1,2.73,6.98a16.051,16.051,0,0,1,26.506,0,15.787,15.787,0,0,1,1.474,2.689,15.7,15.7,0,0,1-.635,13.638,16,16,0,0,0-9.7-7.749,16.236,16.236,0,0,0-8.79,0,15.995,15.995,0,0,0-9.7,7.749Z" transform="translate(-17997.941 -19964.604)" fill="url(#linear-gradient)"/>
    <path id="Subtraction_3" data-name="Subtraction 3" d="M15.82,23.29a15.721,15.721,0,0,1-6.158-1.243,15.821,15.821,0,0,1-2.687-1.459,15.866,15.866,0,0,1-5.732-6.96A15.721,15.721,0,0,1,0,7.471,15.748,15.748,0,0,1,1.871,0,15.891,15.891,0,0,0,7.583,6.038,15.741,15.741,0,0,0,11.47,7.744a15.847,15.847,0,0,0,4.35.606,15.847,15.847,0,0,0,4.35-.606,15.741,15.741,0,0,0,3.887-1.705A15.892,15.892,0,0,0,29.768,0a15.8,15.8,0,0,1-.83,16.316,15.907,15.907,0,0,1-4.273,4.273,15.821,15.821,0,0,1-2.687,1.459A15.721,15.721,0,0,1,15.82,23.29Z" transform="translate(-17978.543 -19937.283)" fill="url(#linear-gradient-2)"/>
    <path id="Subtraction_2" data-name="Subtraction 2" d="M1.871,23.291h0A15.8,15.8,0,0,1,2.7,6.975a15.866,15.866,0,0,1,6.96-5.732,15.8,15.8,0,0,1,15,1.459A15.866,15.866,0,0,1,30.4,9.662,15.721,15.721,0,0,1,31.64,15.82a15.748,15.748,0,0,1-1.871,7.47,15.824,15.824,0,0,0-27.9,0Z" transform="translate(-17948.006 -19965.805) rotate(88)" fill="url(#linear-gradient-3)"/>
    <path id="Subtraction_4" data-name="Subtraction 4" d="M15.82,23.29a15.721,15.721,0,0,1-6.158-1.243,15.821,15.821,0,0,1-2.687-1.459,15.866,15.866,0,0,1-5.732-6.96A15.721,15.721,0,0,1,0,7.471,15.748,15.748,0,0,1,1.871,0,15.891,15.891,0,0,0,7.583,6.038,15.741,15.741,0,0,0,11.47,7.744a15.847,15.847,0,0,0,4.35.606,15.846,15.846,0,0,0,4.35-.606,15.741,15.741,0,0,0,3.887-1.705A15.892,15.892,0,0,0,29.768,0a15.8,15.8,0,0,1-.83,16.316,15.907,15.907,0,0,1-4.273,4.273,15.821,15.821,0,0,1-2.687,1.459A15.721,15.721,0,0,1,15.82,23.29Z" transform="matrix(-0.035, 0.999, -0.999, -0.035, -17973.619, -19945.613)" fill="url(#linear-gradient-4)"/>
  </g>
</svg>
