<svg xmlns="http://www.w3.org/2000/svg" width="25.096" height="31.018" viewBox="0 0 25.096 31.018">
  <g id="Group_17870" data-name="Group 17870" transform="translate(-1011.74 -492.752)">
    <path id="assured_workload_24dp_FILL0_wght400_GRAD0_opsz24" d="M146.33-840.261A14.259,14.259,0,0,1,138.067-846a16.594,16.594,0,0,1-3.284-10v-7.362l11.548-5.774,11.548,5.774v7.362a16.594,16.594,0,0,1-3.284,10A14.259,14.259,0,0,1,146.33-840.261Zm-2.093-8.661,10.032-9.96-3.031-3.031-7,6.857-2.815-2.815-3.031,3.1Z" transform="translate(877.957 1363)" fill="#e8e6ff" stroke="#6a63f6" stroke-width="2"/>
    <path id="Path_10618" data-name="Path 10618" d="M5.557,0h5.164C13.981,0,17.4,1.734,17.4,4.994l-.777,5.335a5.9,5.9,0,0,1-5.9,5.9l-5.164.537c-3.26,0-6.873-4.555-6.873-7.815L-.345,5.9A5.9,5.9,0,0,1,5.557,0Z" transform="translate(1016.228 499.13)" fill="#e8e6ff"/>
    <path id="Path_10617" data-name="Path 10617" d="M501.543,490.073l3.417,3.417,7.134-7.134" transform="translate(518.19 18.382)" fill="none" stroke="#6a63f6" stroke-linecap="round" stroke-linejoin="round" stroke-width="3"/>
  </g>
</svg>
