<svg xmlns="http://www.w3.org/2000/svg" width="38" height="38" viewBox="0 0 38 38">
  <g id="Dashboard_Icon" data-name="Dashboard Icon" transform="translate(-27.063 -277.5)">
    <rect id="Rectangle_8377" data-name="Rectangle 8377" width="38" height="38" transform="translate(27.063 277.5)" fill="#fff" opacity="0"/>
    <g id="Dashboard_Icon-2" data-name="Dashboard Icon" transform="translate(-10.827 -19.824)">
      <path id="Path_33" data-name="Path 33" d="M57.513,377.41c0,1.825-.031,3.652.014,5.476.021.864-.172,1.3-1.163,1.276-2.477-.055-4.956-.045-7.432,0-.874.017-1.147-.309-1.141-1.147q.037-5.476,0-10.952c-.009-1,.421-1.333,1.371-1.321,2.377.033,4.755.053,7.13-.016,1.061-.03,1.272.42,1.242,1.357-.056,1.772-.016,3.548-.016,5.323" transform="translate(-2.662 -66.354)" fill="#fff"/>
      <path id="Path_34" data-name="Path 34" d="M72.457,389.734c0,1.467-.031,2.935.012,4.4.025.867-.2,1.283-1.181,1.263-2.672-.054-5.348-.044-8.02,0-.879.015-1.138-.344-1.133-1.161.018-2.984.017-5.968-.021-8.953-.011-.832.25-1.177,1.121-1.164,2.724.039,5.448.033,8.172,0,.774-.007,1.09.263,1.069,1.057-.039,1.517-.011,3.035-.011,4.552Z" transform="translate(-3.968 -67.574)" fill="#fff"/>
      <path id="Path_35" data-name="Path 35" d="M67.151,379.878c-1.313,0-2.628-.037-3.94.013-.951.036-1.4-.289-1.387-1.3.035-2.178.028-4.356,0-6.534-.009-.872.3-1.316,1.229-1.31q4.167.033,8.336-.01c.792-.009,1.064.292,1.054,1.071q-.046,3.494,0,6.99c.01.777-.264,1.1-1.054,1.078-1.413-.036-2.829-.01-4.243-.01Z" transform="translate(-3.942 -66.355)" fill="#fff"/>
      <path id="Path_36" data-name="Path 36" d="M52.844,388.829c1.21,0,2.421.028,3.63-.01.77-.025,1.092.251,1.071,1.051-.044,1.617-.055,3.235-.011,4.852.024.894-.374,1.11-1.184,1.1-2.368-.035-4.74-.042-7.108,0-.878.017-1.141-.333-1.123-1.158.033-1.566.034-3.135-.024-4.7-.032-.852.258-1.186,1.12-1.151,1.209.049,2.42.013,3.63.015" transform="translate(-2.69 -68.002)" fill="#fff"/>
    </g>
  </g>
</svg>
