<svg xmlns="http://www.w3.org/2000/svg" width="35.084" height="35.084" viewBox="0 0 35.084 35.084">
  <g id="Group_17877" data-name="Group 17877" transform="translate(0.5 0.5)">
    <path id="history_24dp_FILL0_wght400_GRAD0_opsz24" d="M137.042-805.916a16.549,16.549,0,0,0,11.385-4.332,16.428,16.428,0,0,0,5.562-10.817h-3.882a12.66,12.66,0,0,1-4.379,8.142,12.853,12.853,0,0,1-8.687,3.219,12.788,12.788,0,0,1-9.4-3.858,12.788,12.788,0,0,1-3.858-9.4,12.788,12.788,0,0,1,3.858-9.4,12.788,12.788,0,0,1,9.4-3.858,12.78,12.78,0,0,1,6.107,1.515,14.071,14.071,0,0,1,4.781,4.166h-3.353v3.787h9.507v-9.507H150.3v2.6a16.534,16.534,0,0,0-5.894-4.687A16.911,16.911,0,0,0,137.042-840a16.487,16.487,0,0,0-6.651,1.349,17.32,17.32,0,0,0-5.4,3.645,17.323,17.323,0,0,0-3.645,5.4A16.488,16.488,0,0,0,120-822.958a16.488,16.488,0,0,0,1.349,6.651,17.323,17.323,0,0,0,3.645,5.4,17.549,17.549,0,0,0,4.138,3.041c.234.131.738.377,1.258.6A16.489,16.489,0,0,0,137.042-805.916Z" transform="translate(-120 840)" fill="#6c63ff" stroke="#fff" stroke-width="1"/>
    <ellipse id="Ellipse_129" data-name="Ellipse 129" cx="9.272" cy="9.273" rx="9.272" ry="9.273" transform="translate(7.143 7.809)" fill="#e8e6ff"/>
    <path id="schedule_24dp_FILL0_wght400_GRAD0_opsz24" d="M91.8-867.281l1.18-1.18-3.118-3.118v-3.877H88.18v4.551ZM89.022-871.242Z" transform="translate(-73.539 888.411)" fill="#6c63ff" stroke="#6c63ff" stroke-width="1"/>
  </g>
</svg>
