<svg xmlns="http://www.w3.org/2000/svg" width="35.272" height="37.894" viewBox="0 0 35.272 37.894">
  <g id="Group_18112" data-name="Group 18112" transform="translate(-333.796 -472.442)">
    <g id="Group_17901" data-name="Group 17901" transform="matrix(0.829, -0.559, 0.559, 0.829, -360.933, 388.283)">
      <g id="Group_17905" data-name="Group 17905" transform="translate(521.973 476.981)">
        <g id="Group_17903" data-name="Group 17903" transform="translate(0.002 12.923)">
          <path id="Path_10640" data-name="Path 10640" d="M-17636-6420.58h14.121" transform="translate(17632.879 6424.86)" fill="none" stroke="#6c63ff" stroke-linecap="round" stroke-width="2"/>
          <g id="Ellipse_137" data-name="Ellipse 137" transform="translate(13.19 -0.208)" fill="#e8e6ff" stroke="#6c63ff" stroke-linecap="round" stroke-linejoin="round" stroke-width="2">
            <circle cx="4.5" cy="4.5" r="4.5" stroke="none"/>
            <circle cx="4.5" cy="4.5" r="3.5" fill="none"/>
          </g>
        </g>
      </g>
    </g>
    <g id="Group_17910" data-name="Group 17910" transform="matrix(-0.809, -0.588, 0.588, -0.809, 488.196, 1197.743)">
      <g id="Group_17905-2" data-name="Group 17905" transform="translate(523.033 478.677)">
        <g id="Group_17903-2" data-name="Group 17903" transform="translate(0.002 12.923)">
          <path id="Path_10640-2" data-name="Path 10640" d="M-17636-6420.39h14.121" transform="translate(17633.088 6423.751)" fill="none" stroke="#6c63ff" stroke-linecap="round" stroke-width="2"/>
          <g id="Ellipse_137-2" data-name="Ellipse 137" transform="translate(13.19 -0.208)" fill="#e8e6ff" stroke="#6c63ff" stroke-linecap="round" stroke-linejoin="round" stroke-width="2">
            <circle cx="4.5" cy="4.5" r="4.5" stroke="none"/>
            <circle cx="4.5" cy="4.5" r="3.5" fill="none"/>
          </g>
        </g>
      </g>
    </g>
    <g id="Group_17911" data-name="Group 17911" transform="translate(841.914 -25.199) rotate(91)">
      <g id="Group_17905-3" data-name="Group 17905" transform="translate(521.973 476.981)">
        <g id="Group_17903-3" data-name="Group 17903" transform="translate(0.002 12.923)">
          <path id="Path_10640-3" data-name="Path 10640" d="M-17636-6420.58h14.121" transform="translate(17632.467 6424.998)" fill="none" stroke="#6c63ff" stroke-linecap="round" stroke-width="2"/>
          <g id="Ellipse_137-3" data-name="Ellipse 137" transform="translate(13.19 -0.208)" fill="#e8e6ff" stroke="#6c63ff" stroke-linecap="round" stroke-linejoin="round" stroke-width="2">
            <circle cx="4.5" cy="4.5" r="4.5" stroke="none"/>
            <circle cx="4.5" cy="4.5" r="3.5" fill="none"/>
          </g>
        </g>
      </g>
    </g>
  </g>
</svg>
