<?xml version="1.0" encoding="utf-8"?>
<!-- Uploaded to: SVG Repo, www.svgrepo.com, Generator: SVG Repo Mixer Tools -->
<svg width="800px" height="800px" viewBox="0 0 24 24" fill="none" xmlns="http://www.w3.org/2000/svg">
  <path
    fill-rule="evenodd"
    clip-rule="evenodd"
    d="M12 3C12.7956 3 13.5587 3.31607 14.1213 3.87868C14.6839 4.44129 15 5.20435 15 6V11H20C20.7956 11 21.5587 11.3161 22.1213 11.8787C22.6839 12.4413 23 13.2044 23 14C23 14.7956 22.6839 15.5587 22.1213 16.1213C21.5587 16.6839 20.7956 17 20 17H15V22C15 22.7956 14.6839 23.5587 14.1213 24.1213C13.5587 24.6839 12.7956 25 12 25C11.2044 25 10.4413 24.6839 9.87868 24.1213C9.31607 23.5587 9 22.7956 9 22V17H4C3.20435 17 2.44129 16.6839 1.87868 16.1213C1.31607 15.5587 1 14.7956 1 14C1 13.2044 1.31607 12.4413 1.87868 11.8787C2.44129 11.3161 3.20435 11 4 11H9V6C9 5.20435 9.31607 4.44129 9.87868 3.87868C10.4413 3.31607 11.2044 3 12 3Z"
    fill="#9F9C9C"
    stroke="#000000"  
    stroke-width="0.1"  
  />
</svg>
