<svg xmlns="http://www.w3.org/2000/svg" width="25.021" height="31.276" viewBox="0 0 25.021 31.276">
  <g id="Group_17909" data-name="Group 17909" transform="translate(-337.801 -473.582)">
    <g id="Path_10642" data-name="Path 10642" transform="translate(339.611 480.117)" fill="#e8e6ff">
      <path d="M 9.963698387145996 22.20298957824707 L 0.5000004172325134 8.275086402893066 L 0.5000004172325134 -0.4123933017253876 L 10.87301063537598 -3.848012924194336 L 22.62770652770996 -0.422760009765625 L 18.62308692932129 18.83856201171875 L 9.963698387145996 22.20298957824707 Z" stroke="none"/>
      <path d="M 10.88252830505371 -3.32444953918457 L 1 -0.05128097534179688 L 1 8.12128734588623 L 10.15358924865723 21.59279632568359 L 18.18884468078613 18.47086334228516 L 22.04409599304199 -0.07203102111816406 L 10.88252830505371 -3.32444953918457 M 10.86352062225342 -4.371578216552734 L 23.2113208770752 -0.77349853515625 L 19.05733108520508 19.20626068115234 L 9.773810386657715 22.81318092346191 L 0 8.428881645202637 L 0 -0.77349853515625 L 10.86352062225342 -4.371578216552734 Z" stroke="none" fill="#707070"/>
    </g>
    <path id="security_24dp_FILL0_wght400_GRAD0_opsz24" d="M172.511-848.724a15.581,15.581,0,0,1-8.972-6.236A17.959,17.959,0,0,1,160-865.769v-9.539L172.511-880l12.511,4.691v9.539a17.959,17.959,0,0,1-3.538,10.81A15.58,15.58,0,0,1,172.511-848.724Zm0-3.284a12.23,12.23,0,0,0,6.333-4.633,15.437,15.437,0,0,0,2.971-7.721h-9.3v-12.315l-9.383,3.519v8.093a4.1,4.1,0,0,0,.078.7h9.3Z" transform="translate(177.801 1353.582)" fill="#6c63ff"/>
  </g>
</svg>
