<svg xmlns="http://www.w3.org/2000/svg" width="47.048" height="43" viewBox="0 0 47.048 43">
  <g id="Group_17901" data-name="Group 17901" transform="translate(-503.117 -469.697)">
    <path id="manufacturing_24dp_FILL0_wght400_GRAD0_opsz24_1_" data-name="manufacturing_24dp_FILL0_wght400_GRAD0_opsz24 (1)" d="M392.527-561.986l-1.222-5.7a12.335,12.335,0,0,1-2.138-.984A17.269,17.269,0,0,1,387.232-570l-5.431,1.765-3.8-6.517,4.344-3.8a22.118,22.118,0,0,1-.136-2.444,22.117,22.117,0,0,1,.136-2.444l-4.344-3.8,3.8-6.517,5.431,1.765a17.279,17.279,0,0,1,1.935-1.324,12.334,12.334,0,0,1,2.138-.984l1.222-5.7h7.6l1.222,5.7a12.336,12.336,0,0,1,2.138.984,17.279,17.279,0,0,1,1.935,1.324l5.431-1.765,3.8,6.517-4.344,3.8a22.117,22.117,0,0,1,.136,2.444,22.118,22.118,0,0,1-.136,2.444l4.344,3.8-3.8,6.517L405.424-570a17.269,17.269,0,0,1-1.935,1.324,12.336,12.336,0,0,1-2.138.984l-1.222,5.7Zm3.8-10.861a7.855,7.855,0,0,0,5.77-2.376,7.855,7.855,0,0,0,2.376-5.77,7.855,7.855,0,0,0-2.376-5.77,7.856,7.856,0,0,0-5.77-2.376,7.856,7.856,0,0,0-5.77,2.376,7.856,7.856,0,0,0-2.376,5.77,7.855,7.855,0,0,0,2.376,5.77A7.856,7.856,0,0,0,396.328-572.847Z" transform="translate(125.117 1072.912)" fill="#6c63ff"/>
    <rect id="Rectangle_8353" data-name="Rectangle 8353" width="24" height="43" transform="translate(522.165 469.697)" fill="#fff"/>
    <g id="Group_17905" data-name="Group 17905" transform="translate(521.973 476.981)">
      <path id="Path_10641" data-name="Path 10641" d="M-17636-6492.292h9.895l4.08-3.944h5.125" transform="translate(17638.459 6504.704)" fill="none" stroke="#6c63ff" stroke-linecap="round" stroke-linejoin="round" stroke-width="2"/>
      <g id="Ellipse_136" data-name="Ellipse 136" transform="translate(21.193 4.716)" fill="#e8e6ff" stroke="#6c63ff" stroke-linecap="round" stroke-linejoin="round" stroke-width="2">
        <circle cx="3.5" cy="3.5" r="3.5" stroke="none"/>
        <circle cx="3.5" cy="3.5" r="2.5" fill="none"/>
      </g>
      <g id="Group_17902" data-name="Group 17902" transform="translate(0.002 0)">
        <path id="Path_10638" data-name="Path 10638" d="M-17636-6526.666h8.031l3.383-3.381" transform="translate(17638.459 6534.76)" fill="none" stroke="#6c63ff" stroke-linecap="round" stroke-linejoin="round" stroke-width="2"/>
        <g id="Ellipse_135" data-name="Ellipse 135" transform="translate(9.19 -0.284)" fill="#e8e6ff" stroke="#6c63ff" stroke-linecap="round" stroke-linejoin="round" stroke-width="2">
          <circle cx="3.5" cy="3.5" r="3.5" stroke="none"/>
          <circle cx="3.5" cy="3.5" r="2.5" fill="none"/>
        </g>
      </g>
      <g id="Group_17901-2" data-name="Group 17901" transform="translate(0.002 20.689)">
        <path id="Path_10639" data-name="Path 10639" d="M-17636-6530.048h8.031l3.383,3.381" transform="translate(17638.459 6530.048)" fill="none" stroke="#6c63ff" stroke-linecap="round" stroke-linejoin="round" stroke-width="2"/>
        <g id="Ellipse_138" data-name="Ellipse 138" transform="translate(9.19 2.026)" fill="#e8e6ff" stroke="#6c63ff" stroke-linecap="round" stroke-linejoin="round" stroke-width="2">
          <circle cx="3.5" cy="3.5" r="3.5" stroke="none"/>
          <circle cx="3.5" cy="3.5" r="2.5" fill="none"/>
        </g>
      </g>
      <g id="Group_17903" data-name="Group 17903" transform="translate(0.002 12.923)">
        <path id="Path_10640" data-name="Path 10640" d="M-17636-6420.58h14.121" transform="translate(17638.459 6424.529)" fill="none" stroke="#6c63ff" stroke-linecap="round" stroke-width="2"/>
        <g id="Ellipse_137" data-name="Ellipse 137" transform="translate(13.19 -0.208)" fill="#e8e6ff" stroke="#6c63ff" stroke-linecap="round" stroke-linejoin="round" stroke-width="2">
          <circle cx="3.5" cy="3.5" r="3.5" stroke="none"/>
          <circle cx="3.5" cy="3.5" r="2.5" fill="none"/>
        </g>
      </g>
    </g>
  </g>
</svg>
